<?xml version="1.0" encoding="utf-8"?>
<!-- Generator: Adobe Illustrator 19.0.0, SVG Export Plug-In . SVG Version: 6.00 Build 0)  -->
<svg version="1.1" id="Warstwa_1" xmlns="http://www.w3.org/2000/svg" xmlns:xlink="http://www.w3.org/1999/xlink" x="0px" y="0px"
	 viewBox="-290.5 403.4 35 35" style="enable-background:new -290.5 403.4 35 35;" xml:space="preserve">
<style type="text/css">
	.st0{fill:#99D327;}
</style>
<path class="st0" d="M-273.3,437.6C-273.3,437.6-273.3,437.6-273.3,437.6c-9.2,0-16.7-7.5-16.7-16.7c0-4.5,1.7-8.7,4.9-11.8
	c3.2-3.2,7.4-4.9,11.8-4.9c2.3,0,4.7,0.5,6.8,1.4c0.8,0.3,1.1,1.2,0.8,2c-0.3,0.8-1.2,1.1-2,0.8c-1.8-0.8-3.6-1.2-5.6-1.2
	c0,0,0,0,0,0c-3.7,0-7.1,1.4-9.7,4c-2.6,2.6-4,6-4,9.7c0,7.6,6.1,13.7,13.7,13.7c0,0,0,0,0,0c7.5,0,13.7-6.1,13.7-13.7v-1.4
	c0-0.8,0.7-1.5,1.5-1.5c0.8,0,1.5,0.7,1.5,1.5v1.4C-256.5,430.1-264,437.6-273.3,437.6z"/>
<path class="st0" d="M-273.3,425.5L-273.3,425.5c-0.4,0-0.8-0.2-1.1-0.4l-4.6-4.6c-0.6-0.6-0.6-1.6,0-2.2c0.6-0.6,1.6-0.6,2.2,0
	l3.5,3.5l15.7-15.7c0.6-0.6,1.6-0.6,2.2,0c0.6,0.6,0.6,1.6,0,2.2l-16.7,16.7C-272.5,425.3-272.9,425.5-273.3,425.5z"/>
</svg>
