<?xml version="1.0" ?><!DOCTYPE svg  PUBLIC '-//W3C//DTD SVG 1.1//EN'  'http://www.w3.org/Graphics/SVG/1.1/DTD/svg11.dtd'><svg enable-background="new 0 0 512 512" height="512px" id="Layer_1" version="1.1" viewBox="0 0 512 512" width="512px" xml:space="preserve" xmlns="http://www.w3.org/2000/svg" xmlns:xlink="http://www.w3.org/1999/xlink"><path d="M512,432c0,44.182-35.816,80-80,80H80c-44.183,0-80-35.818-80-80V80C0,35.817,35.817,0,80,0h352  c44.184,0,80,35.817,80,80V432z" fill="#181616"/><path d="M512,432V269.639L381.237,138.875l-65.681,65.681l-38.818-38.818l-76.884,76.884h-59.258v99.008  l-8.094,8.096L294.776,512H432C476.184,512,512,476.182,512,432z" fill="#0C0C0C"/><g><path d="M312.25,377.875h-112.5c-51.782,0-93.75-41.968-93.75-93.75v-37.5c0-20.947,7.104-40.137,18.75-55.737   V162.25c0-15.527,3.223-28.125,18.75-28.125c13.11,0,30.029,9.155,35.229,21.313c6.775-1.575,13.77-2.563,21.021-2.563h112.5   c7.251,0,14.246,0.989,21.021,2.563c5.2-12.158,22.119-21.313,35.229-21.313c15.527,0,18.75,12.598,18.75,28.125v28.638   c11.646,15.601,18.75,34.79,18.75,55.737v37.5C406,335.907,364.032,377.875,312.25,377.875z M312.25,246.625h-112.5   c-31.055,0-56.25,25.195-56.25,56.25s25.195,56.25,56.25,56.25h112.5c31.055,0,56.25-25.195,56.25-56.25   S343.305,246.625,312.25,246.625z M312.25,331.586c-15.527,0-18.75-12.598-18.75-28.125V293.5c0-15.527,3.223-28.125,18.75-28.125   S331,277.973,331,293.5v9.961C331,318.988,327.777,331.586,312.25,331.586z M199.75,331.586c-15.527,0-18.75-12.598-18.75-28.125   V293.5c0-15.527,3.223-28.125,18.75-28.125s18.75,12.598,18.75,28.125v9.961C218.5,318.988,215.277,331.586,199.75,331.586z" fill="#FFFFFF"/></g></svg>