<?xml version="1.0" encoding="utf-8"?>
<!-- Generator: Adobe Illustrator 19.0.0, SVG Export Plug-In . SVG Version: 6.00 Build 0)  -->
<svg version="1.1" id="Warstwa_1" xmlns="http://www.w3.org/2000/svg" xmlns:xlink="http://www.w3.org/1999/xlink" x="0px" y="0px"
	 viewBox="-41 330.8 512 180.2" style="enable-background:new -41 330.8 512 180.2;" xml:space="preserve">
<style type="text/css">
	.st0{enable-background:new    ;}
	.st1{fill:#006699;}
</style>
<g id="形状_1_3_" class="st0">
	<g id="形状_1">
		<g>
			<path d="M2.4,382.4H-15v77.1h48.1v-14.6H2.4V382.4z M48,379.3c-5.6,0-9.3,3.8-9.3,8.7c0,4.8,3.5,8.7,9,8.7c5.8,0,9.4-3.9,9.4-8.7
				C57.1,383.1,53.6,379.3,48,379.3z M39.2,459.5h17.4v-55.9H39.2V459.5z M100.1,402.3c-9.4,0-15,5.4-17.3,9h-0.3l-0.8-7.8H66.6
				c0.2,5,0.5,10.9,0.5,17.8v38.1h17.4v-32.3c0-1.6,0.1-3.2,0.6-4.3c1.3-3.2,4.1-6.5,8.9-6.5c6.3,0,8.8,4.9,8.8,12.1v31h17.4v-33.1
				C120.1,409.9,111.5,402.3,100.1,402.3z M184.4,403.5h-20.9l-11.3,16.8c-1.4,2.1-2.7,4.3-4,6.8h-0.2v-48.9h-17.4v81.2h17.4V442
				l4.3-5.5l13.6,23h21.4l-22.9-33.3L184.4,403.5z M212.4,402.3c-19.4,0-28.3,15.7-28.3,29.9c0,17.5,10.9,28.5,29.9,28.5
				c7.6,0,14.5-1.1,20.3-3.5l-2.3-11.8c-4.7,1.6-9.5,2.4-15.4,2.4c-8.1,0-15.3-3.4-15.8-10.6h36c0.2-1.3,0.6-3.9,0.6-6.9
				C237.4,416.3,230.5,402.3,212.4,402.3z M200.7,425.2c0.5-4.6,3.4-11.3,10.8-11.3c8,0,9.8,7.1,9.8,11.3H200.7z M298.5,442.8v-64.5
				h-17.4v30.2h-0.2c-2.5-3.8-7.8-6.3-14.8-6.3c-13.4,0-25.2,11-25.1,29.9c0,17.4,10.6,28.7,23.9,28.7c7.2,0,14.1-3.2,17.5-9.4h0.3
				l0.7,8.1h15.4C298.7,455.7,298.5,449.1,298.5,442.8z M281.1,434.5c0,1.4-0.1,2.7-0.3,4c-1,4.9-5.1,8.4-10.2,8.4
				c-7.2,0-11.9-6-11.9-15.4c0-8.8,4-15.9,12-15.9c5.4,0,9.2,3.9,10.2,8.5c0.2,1,0.2,2.3,0.2,3.2L281.1,434.5L281.1,434.5z"/>
		</g>
	</g>
</g>
<g id="形状_1_2_" class="st0">
	<g id="形状_1_1_">
		<g>
			<path class="st1" d="M432,356H328.8c-7.2,0-13,5.9-13,13.1v104.6c0,7.2,5.8,13.1,13,13.1H432c7.2,0,13-5.9,13-13.1V369.1
				C445,361.8,439.2,356,432,356z M357.2,459.5h-17.4v-55.9h17.4V459.5z M348.4,396.7c-5.5,0-9-3.9-9-8.7c0-4.9,3.7-8.7,9.3-8.7
				c5.6,0,9,3.8,9.2,8.7C357.8,392.8,354.2,396.7,348.4,396.7z M420.7,459.5h-17.4v-31c0-7.2-2.5-12.1-8.8-12.1
				c-4.8,0-7.7,3.3-8.9,6.5c-0.5,1.1-0.6,2.7-0.6,4.3v32.3h-17.4v-38.1c0-7-0.2-12.8-0.5-17.8h15.1l0.8,7.8h0.3
				c2.3-3.7,7.9-9,17.3-9c11.4,0,20,7.7,20,24.1L420.7,459.5L420.7,459.5z"/>
		</g>
	</g>
</g>
</svg>
