<?xml version="1.0" ?><svg height="60px" version="1.1" viewBox="0 0 60 60" width="60px" xmlns="http://www.w3.org/2000/svg" xmlns:xlink="http://www.w3.org/1999/xlink"><title/><desc/><defs><radialGradient cx="39.8681818%" cy="33.311215%" fx="39.8681818%" fy="33.311215%" id="radialGradient-1" r="65.1963636%"><stop offset="0%" stop-color="#0E0E17" stop-opacity="0.85"/><stop offset="76.7%" stop-color="#0E0E17"/></radialGradient></defs><g fill="none" fill-rule="evenodd" id="Page-1" stroke="none" stroke-width="1"><g id="Social_icons" transform="translate(-522.000000, -654.000000)"><g id="Adobe_Photoshop" transform="translate(522.000000, 654.000000)"><path d="M0,30 C0,13.4315 13.4315,0 30,0 C46.5685,0 60,13.4315 60,30 C60,46.5685 46.5685,60 30,60 C13.4315,60 0,46.5685 0,30 Z" fill="#31C5F0" fill-rule="nonzero" id="path0_fill"/><path d="M3,30 C3,15.08835 15.08835,3 30,3 C44.91165,3 57,15.08835 57,30 C57,44.91165 44.91165,57 30,57 C15.08835,57 3,44.91165 3,30 Z" fill="url(#radialGradient-1)" fill-rule="nonzero" id="path0_fill"/><path d="M15,17.3920388 C15,17.2352233 15.336203,17.1176117 15.5322224,17.1176117 C17.0611739,17.0392039 19.3060121,17 21.6580075,17 C28.24426,17 30.809382,20.6067573 30.809382,25.2328156 C30.809382,31.2702138 26.4309022,33.8576701 21.0599701,33.8576701 C20.1582807,33.8576701 19.8446497,33.8182286 19.2173875,33.8182286 L19.2173875,42.9467936 C19.2173875,43.1430506 19.1389797,43.2214584 18.9429603,43.2214584 L15.2744272,43.2214584 C15.0784078,43.2214584 15,43.1430506 15,42.9467936 L15,17.3920388 Z M19.2173875,30.0156895 C19.7662419,30.0546558 20.1974846,30.0546558 21.1383778,30.0546558 C23.9218536,30.0546558 26.5361587,29.0745587 26.5361587,25.3109858 C26.5361587,22.2920491 24.6667274,20.7633353 21.4912128,20.7633353 C20.5503196,20.7633353 19.6486302,20.8023015 19.2173875,20.841743 L19.2173875,30.0154519 L19.2173875,30.0156895 Z M39.6680342,27.1930098 C37.7862478,27.1930098 37.1589856,28.133903 37.1589856,28.9179807 C37.1589856,29.7804662 37.5902283,30.3682868 40.0995145,31.6622526 C43.8238835,33.4656313 45,35.1906022 45,37.738617 C45,41.5416314 42.0989126,43.5802333 38.1785242,43.5802333 C36.1007183,43.5802333 34.3322668,43.148753 33.3129658,42.5609323 C33.1561503,42.4825246 33.1169464,42.3649129 33.1169464,42.1688935 L33.1169464,38.6797478 C33.1169464,38.4445245 33.234558,38.3661168 33.3913736,38.4834908 C34.8811212,39.4633503 36.6101312,39.8948306 38.1785242,39.8948306 C40.0603106,39.8948306 40.8443883,39.110753 40.8443883,38.0522481 C40.8443883,37.1897626 40.2955339,36.4446512 37.904097,35.1903646 C34.532563,33.5827677 33.1212232,31.9362046 33.1212232,29.1921703 C33.1212232,26.1342674 35.5126601,23.5857773 39.6680342,23.5857773 C41.7066361,23.5857773 43.1460127,23.8994084 43.9300904,24.2520057 C44.1261098,24.369855 44.1653137,24.5656368 44.1653137,24.7224523 L44.1653137,27.9770875 C44.1653137,28.1728693 44.047702,28.2907186 43.8124787,28.2123108 C42.7542114,27.5850487 41.1972233,27.1930098 39.6680342,27.1930098 L39.6680342,27.1930098 Z" fill="#31C5F0" id="Shape"/></g></g></g></svg>