<?xml version="1.0" encoding="utf-8"?>
<!-- Generator: Adobe Illustrator 19.0.0, SVG Export Plug-In . SVG Version: 6.00 Build 0)  -->
<svg version="1.1" id="Layer_1" xmlns="http://www.w3.org/2000/svg" xmlns:xlink="http://www.w3.org/1999/xlink" x="0px" y="0px"
	 viewBox="-273 396.9 48 48" style="enable-background:new -273 396.9 48 48;" xml:space="preserve">
<style type="text/css">
	.st0{fill:#FFFFFF;}
</style>
<g>
	<path class="st0" d="M-249,396.9c-13.3,0-24,10.7-24,24c0,13.3,10.7,24,24,24s24-10.7,24-24C-225,407.7-235.7,396.9-249,396.9z
		 M-249,441c-11,0-20-9-20-20c0-11,9-20,20-20s20,9,20,20C-229,432.1-238,441-249,441z"/>
	<g>
		<path class="st0" d="M-250.2,428.8c-1.7,0-2.6,0.9-2.6,2.7c0,0.9,0.2,1.5,0.7,2c0.4,0.5,1.1,0.7,1.9,0.7c0.8,0,1.5-0.2,1.9-0.7
			c0.5-0.5,0.7-1.1,0.7-2c0-0.8-0.2-1.5-0.7-2C-248.7,429.1-249.4,428.8-250.2,428.8z"/>
		<path class="st0" d="M-243.7,409.3c-1.3-1.1-3.2-1.7-5.5-1.7c-2.3,0-4.4,0.5-6.5,1.4c-1.1,0.5-0.6,1.7-0.6,1.7l0.5,1
			c0,0,0.5,0.9,1.7,0.5c0,0,0,0,0,0c0.5-0.2,1-0.4,1.5-0.6c0.9-0.3,2-0.5,3.1-0.5c1.2,0,2.2,0.3,2.8,0.8c0.7,0.5,1,1.3,1,2.3
			c0,0.8-0.2,1.6-0.6,2.2c-0.4,0.6-1.3,1.5-2.7,2.6c-1.2,0.9-2,1.8-2.5,2.7c-0.5,0.9-0.7,1.9-0.7,3.2c0,0.9,1.1,1.1,1.1,1.1h0.7
			c0,0,1.4,0,1.6-1.2c0,0,0,0,0,0c0-0.8,0.2-1.4,0.5-1.8c0.4-0.6,1.1-1.3,2.2-2.1c1.3-1,2.2-1.8,2.7-2.4c0.5-0.6,0.9-1.3,1.2-2
			c0.3-0.7,0.4-1.5,0.4-2.3C-241.6,412-242.3,410.4-243.7,409.3z"/>
	</g>
</g>
</svg>
