<?xml version="1.0" encoding="utf-8"?>
<!-- Generator: Adobe Illustrator 19.0.0, SVG Export Plug-In . SVG Version: 6.00 Build 0)  -->
<svg version="1.1" id="Warstwa_1" xmlns="http://www.w3.org/2000/svg" xmlns:xlink="http://www.w3.org/1999/xlink" x="0px" y="0px"
	 viewBox="-273 396.9 48 48" style="enable-background:new -273 396.9 48 48;" xml:space="preserve">
<style type="text/css">
	.st0{fill:#F4F4F4;}
	.st1{fill:#99D327;}
	.st2{opacity:0.1;enable-background:new    ;}
	.st3{fill:#FFFFFF;}
	.st4{font-family:'MyriadPro-Regular';}
	.st5{font-size:15.2175px;}
</style>
<path class="st0" d="M-262.1,413.5h-6.3c-0.9,0-1.6,0.7-1.6,1.6v16.8c0,0.9,0.7,1.6,1.6,1.6h2.6l-0.3,3.9l4.6-3.5
	c0.3-0.2,0.7-0.4,1.1-0.4h19.2c0.9,0,1.6-0.7,1.6-1.6v-4.3L-262.1,413.5z"/>
<path class="st1" d="M-237.4,405.4h-24c-1.1,0-1.9,0.9-1.9,2v4.2v1.9v13.9c0,1.1,0.9,1.9,1.9,1.9h21.6h1.8l5.9,4.6l-0.4-4.6h3
	c1,0,1.9-0.9,1.9-1.9l0-5.8L-237.4,405.4z"/>
<path class="st2" d="M-227.4,422.1l0,2.7h-6.9c-2.1,0-3.8-1.7-3.8-3.8v-2.7c0,2.1,1.9,2.4,4,2.4L-227.4,422.1z"/>
<text transform="matrix(1 0 0 1 -250.3361 422.0749)" class="st3 st4 st5">3</text>
</svg>
