<?xml version="1.0" ?><svg enable-background="new 0 0 128 128" id="Слой_1" version="1.1" viewBox="0 0 128 128" xml:space="preserve" xmlns="http://www.w3.org/2000/svg" xmlns:xlink="http://www.w3.org/1999/xlink"><g id="Wacom_1_"><path d="M18,40.9V109c0,2.2,1.8,4,4,4h70c2.2,0,4-1.8,4-4V40.9L86.7,38h-62L18,40.9z" fill="#382C41"/><path d="M96,21c0-2.2-1.8-4-4-4H22c-2.2,0-4,1.8-4,4v20h78V21z" fill="#302534"/><rect fill="#100002" height="50" width="48" x="33" y="45"/><path d="M25,26v6c0,1.1,0.9,2,2,2h2c1.1,0,2-0.9,2-2v-6c0-1.1-0.9-2-2-2h-2C25.9,24,25,24.9,25,26z" fill="#382C41"/><path d="M41,24h-2c-1.1,0-2,0.9-2,2v6c0,1.1,0.9,2,2,2h2c1.1,0,2-0.9,2-2v-6C43,24.9,42.1,24,41,24z" fill="#382C41"/><path d="M31,26v6c0,1.1,0.9,2,2,2h2c1.1,0,2-0.9,2-2v-6c0-1.1-0.9-2-2-2h-2C31.9,24,31,24.9,31,26z" fill="#382C41"/><path d="M71,26v6c0,1.1,0.9,2,2,2h2c1.1,0,2-0.9,2-2v-6c0-1.1-0.9-2-2-2h-2C71.9,24,71,24.9,71,26z" fill="#382C41"/><path d="M87,24h-2c-1.1,0-2,0.9-2,2v6c0,1.1,0.9,2,2,2h2c1.1,0,2-0.9,2-2v-6C89,24.9,88.1,24,87,24z" fill="#382C41"/><path d="M77,26v6c0,1.1,0.9,2,2,2h2c1.1,0,2-0.9,2-2v-6c0-1.1-0.9-2-2-2h-2C77.9,24,77,24.9,77,26z" fill="#382C41"/></g><g id="Button_1_"><g><circle cx="57" cy="29" fill="#2D1829" r="8"/></g><g><circle cx="57" cy="29" fill="#382C41" r="3"/></g></g><g id="Pen_1_"><path d="M63.2,114l-1.6-3.8l-3.9,1.4c0,0-3.2,7.9-0.7,9C59.4,121.6,63.2,114,63.2,114z" fill="#1D191C"/><polygon fill="#0A0A0A" points="74.7,105.6 73.9,102.5 59.7,96.1 56.4,97.4 56.8,111.1 64.2,114.4  "/><path d="M104.2,27.7L95,23.6l4.5-10c2.5-5.5,11.6-1.4,9.1,4.1L104.2,27.7z" fill="#1D191C"/><rect fill="#0A0A0A" height="7" transform="matrix(0.9122 0.4097 -0.4097 0.9122 18.0639 -39.4307)" width="16" x="93" y="18.9"/><path d="M74.7,105.6c-4.6-2-13.7-6.1-18.2-8.2c-0.3-6.2,4.3-9.6,7.8-17.3c11-24.5,27.9-62.2,27.9-62.2l9.1,4.1   l9.1,4.1c0,0-17,37.8-27.9,62C79.1,95.7,79.5,101.7,74.7,105.6z" fill="#4D3B4F"/></g><g id="Button_pen_1_"><path d="M65.7,81.6l-1.8-0.8c-1-0.5-1.5-1.6-1-2.6c0,0,1-3.3,3.4-8.6c2.2-4.9,3.9-10,3.9-10c0.5-1,1.6-1.5,2.6-1   l2.7,1.2c0.5,0.2,0.7,0.8,0.5,1.3l-9,20.1C66.8,81.6,66.2,81.9,65.7,81.6z" fill="#1D191C"/></g></svg>